# xmcd CD database file
#
# Track frame offsets:
#	150
#	11437
#	24286
#	37840
#	49784
#	62208
#	73627
#	87508
#	97762
#	110456
#	119298
#	134587
#	155256
#	174060
#	187074
#	199203
#	209492
#	226481
#	242217
#	254346
#	270378
#	290727
#	305471
#	317365
#
# Disc length: 4410 seconds
#
# Revision: 0
# Processed by: cddbd v1.4PL0 Copyright (c) Steve Scherf et al.
# Submitted via: CDex 1.40Release
#
DISCID=4c113818
DTITLE=Tião Carreiro e Pardinho - Dose Dupla - Volume 10
DYEAR=2003
DGENRE=Country
TTITLE0=Quando cai a chuva
TTITLE1=Nascimento de Jesus
TTITLE2=Meu pedido
TTITLE3=Drama da vida
TTITLE4=Quebra de tabu
TTITLE5=Aquela ingrata
TTITLE6=Encantos da natureza
TTITLE7=Gaúcho decidido
TTITLE8=Retrato do boi Soberano
TTITLE9=Falsidade
TTITLE10=Caçador
TTITLE11=Pagode do aiá
TTITLE12=Na paz de Deus
TTITLE13=Duelo de amor
TTITLE14=Adeus meu bem
TTITLE15=Fiz uma cova na areia
TTITLE16=Tenho muito amor pra dar
TTITLE17=Vivendo longe do meu bem
TTITLE18=Furacão
TTITLE19=Levanta patrão
TTITLE20=Exemplo de humildade
TTITLE21=Chumbo grosso
TTITLE22=Sete flechas
TTITLE23=Motorista do Brasil
EXTD=YEAR: 2003 ID3G: 2
EXTT0=
EXTT1=
EXTT2=
EXTT3=
EXTT4=
EXTT5=
EXTT6=
EXTT7=
EXTT8=
EXTT9=
EXTT10=
EXTT11=
EXTT12=
EXTT13=
EXTT14=
EXTT15=
EXTT16=
EXTT17=
EXTT18=
EXTT19=
EXTT20=
EXTT21=
EXTT22=
EXTT23=
PLAYORDER=
